<?xml version="1.0" encoding="utf-8"?>
<!-- Generator: Adobe Illustrator 18.0.0, SVG Export Plug-In . SVG Version: 6.00 Build 0)  -->
<!DOCTYPE svg PUBLIC "-//W3C//DTD SVG 1.1//EN" "http://www.w3.org/Graphics/SVG/1.1/DTD/svg11.dtd">
<svg version="1.1" id="Layer_1" xmlns="http://www.w3.org/2000/svg" xmlns:xlink="http://www.w3.org/1999/xlink" x="0px" y="0px"
	 viewBox="-60 72.5 120 15" enable-background="new -60 72.5 120 15" xml:space="preserve">
<g>
	<path fill="#FFFFFF" d="M-32.6,85.1h-2.6V81h-3.2v4.2H-41V75h2.6v3.9h3.2V75h2.6C-32.6,75-32.6,85.1-32.6,85.1z"/>
	<path fill="#FFFFFF" d="M-25,83.4c0,0.7,0,1.3,0.1,1.7h-2.3l-0.1-0.7h0c-0.5,0.6-1.3,0.9-2.1,0.9c-1.5,0-2.5-1-2.5-2.3
		c0-1.9,1.9-2.8,4.4-2.8c0-0.6-0.3-1-1.3-1c-0.8,0-1.5,0.2-2,0.5l-0.5-1.5c0.5-0.3,1.6-0.6,3-0.6c2.7,0,3.4,1.5,3.4,3.2V83.4z
		 M-27.5,81.6c-1.1,0-2,0.3-2,1.1c0,0.6,0.4,0.9,0.9,0.9c0.5,0,1.1-0.3,1.1-1V81.6z"/>
	<path fill="#FFFFFF" d="M-16.6,85.1h-2.6v-4.3c0-0.8-0.3-1.3-1-1.3c-0.5,0-1.1,0.4-1.1,1.3v4.3h-2.6v-5c0-0.9,0-1.7,0-2.4h2.2
		l0.1,0.9h0c0.4-0.5,1.1-1.1,2.3-1.1c1.7,0,2.6,1.1,2.6,3L-16.6,85.1L-16.6,85.1z"/>
	<path fill="#FFFFFF" d="M-8.1,82.9c0,0.8,0,1.7,0,2.3h-2.3l-0.1-1h0c-0.4,0.7-1.3,1.1-2.2,1.1c-1.9,0-3.1-1.6-3.1-3.8
		c0-2.5,1.5-3.9,3.2-3.9c0.9,0,1.5,0.3,1.8,0.8h0v-3.8h2.6L-8.1,82.9L-8.1,82.9z M-10.7,80.8c0-1-0.7-1.3-1.1-1.3
		c-0.9,0-1.4,0.9-1.4,2c0,1.3,0.5,1.9,1.3,1.9c0.5,0,1.1-0.3,1.1-1.3L-10.7,80.8L-10.7,80.8z"/>
	<path fill="#FFFFFF" d="M1.5,84.9c-0.4,0.2-1.3,0.3-2.4,0.3c-3.6,0-5.3-2.2-5.3-5.1c0-3.6,2.6-5.3,5.5-5.3c1.1,0,1.9,0.2,2.3,0.4
		l-0.5,1.9c-0.4-0.2-0.9-0.3-1.6-0.3c-1.6,0-3,1-3,3.3c0,2.1,1.2,3.2,3,3.2c0.6,0,1.2-0.1,1.6-0.2L1.5,84.9z"/>
	<path fill="#FFFFFF" d="M7.2,79.9c-0.2,0-0.4,0-0.6,0c-0.7,0-1.3,0.3-1.5,0.9C5,80.9,5,81.2,5,81.4v3.7H2.4v-5c0-1,0-1.7,0-2.4h2.2
		L4.7,79h0c0.4-1,1.3-1.4,1.9-1.4c0.2,0,0.4,0,0.5,0L7.2,79.9L7.2,79.9z"/>
	<path fill="#FFFFFF" d="M15.5,81.4c0,2.9-2.1,3.9-3.8,3.9c-2.3,0-3.8-1.4-3.8-3.8c0-2.5,1.7-3.9,3.9-3.9
		C14.1,77.6,15.5,79.2,15.5,81.4z M11.7,79.3c-1,0-1.3,1.1-1.3,2.2c0,1.2,0.4,2.2,1.3,2.2c0.8,0,1.2-1,1.2-2.2
		C13,80.3,12.6,79.3,11.7,79.3z"/>
	<path fill="#FFFFFF" d="M27.4,77.7L25,85.1h-2.3l-0.6-2.4c-0.2-0.7-0.3-1.4-0.5-2.3h0c-0.1,0.9-0.3,1.6-0.5,2.3l-0.7,2.4h-2.3
		l-2.2-7.4h2.6l0.5,3c0.1,0.8,0.3,1.6,0.4,2.4h0c0.1-0.8,0.4-1.6,0.5-2.3l0.7-3h2l0.7,2.9c0.2,0.8,0.4,1.6,0.5,2.4h0
		c0.1-0.8,0.2-1.6,0.4-2.4l0.5-2.9C24.8,77.7,27.4,77.7,27.4,77.7z"/>
	<path fill="#FFFFFF" d="M35.6,82.9c0,0.8,0,1.7,0,2.3h-2.3l-0.1-1h0c-0.4,0.7-1.3,1.1-2.2,1.1c-1.9,0-3.1-1.6-3.1-3.8
		c0-2.5,1.5-3.9,3.2-3.9c0.9,0,1.5,0.3,1.8,0.8h0v-3.8h2.6V82.9z M33.1,80.8c0-1-0.7-1.3-1.1-1.3c-0.9,0-1.4,0.9-1.4,2
		c0,1.3,0.5,1.9,1.3,1.9c0.5,0,1.1-0.3,1.1-1.3L33.1,80.8L33.1,80.8z"/>
</g>
<g>
	<path fill="#2E9ED0" d="M-50.9,76.7L-50.9,76.7c0.2,0.1,0.4,0.1,0.5,0l0.7-0.6v0.4v0.9v2.3c0,0.2,0.2,0.4,0.4,0.4h0
		c0.2,0,0.4-0.2,0.4-0.4v-2.3h0.1v2.9c0,0.2,0.2,0.4,0.4,0.4h0.1c0.2,0,0.4-0.2,0.4-0.4v-2.9h0.1v2.5c0,0.2,0.2,0.4,0.4,0.4h0
		c0.2,0,0.4-0.2,0.4-0.4v-2.5h0.1v1.9c0,0.2,0.2,0.4,0.4,0.4h0c0.2,0,0.4-0.2,0.4-0.4v-1.9v-1.3v-0.9c0-0.9-0.7-1.6-1.6-1.6h-0.5
		c-0.5,0-0.9,0.2-1.2,0.6v0l-1.7,2.2C-51.1,76.4-51,76.6-50.9,76.7z"/>
	<path fill="#92C26D" d="M-55.8,78.4L-55.8,78.4c0.1-0.2,0.1-0.4,0-0.5l-0.6-0.7h0.4h0.9h2.3c0.2,0,0.4-0.2,0.4-0.4v0
		c0-0.2-0.2-0.4-0.4-0.4h-2.3v-0.1h2.9c0.2,0,0.4-0.2,0.4-0.4v0c0-0.2-0.2-0.4-0.4-0.4h-2.9v-0.2h2.5c0.2,0,0.4-0.2,0.4-0.4v0
		c0-0.2-0.2-0.4-0.4-0.4h-2.5v-0.1h1.9c0.2,0,0.4-0.2,0.4-0.4v0c0-0.2-0.2-0.4-0.4-0.4h-1.9h-1.3h-0.9c-0.9,0-1.6,0.7-1.6,1.6v0.5
		c0,0.5,0.2,0.9,0.6,1.2h0l2.2,1.7C-56.1,78.6-55.9,78.6-55.8,78.4z"/>
	<path fill="#EDA916" d="M-54.1,83.4L-54.1,83.4c-0.2-0.1-0.4-0.1-0.5,0l-0.7,0.6v-0.4v-0.8v-2.3c0-0.2-0.2-0.4-0.4-0.4h0
		c-0.2,0-0.4,0.2-0.4,0.4v2.3h-0.1v-2.9c0-0.2-0.2-0.4-0.4-0.4h0c-0.2,0-0.4,0.2-0.4,0.4v2.9h-0.1v-2.5c0-0.2-0.2-0.4-0.4-0.4h0
		c-0.2,0-0.4,0.2-0.4,0.4v2.5h-0.2v-1.9c0-0.2-0.2-0.4-0.4-0.4h0c-0.2,0-0.4,0.2-0.4,0.4v1.9V84V85c0,0.9,0.7,1.6,1.6,1.6h0.5
		c0.5,0,0.9-0.2,1.2-0.6v0l1.7-2.2C-53.9,83.7-53.9,83.5-54.1,83.4z"/>
	<path fill="#E98177" d="M-49.2,81.6L-49.2,81.6c-0.1,0.2-0.1,0.4,0,0.5l0.6,0.7H-49h-0.9h-2.3c-0.2,0-0.4,0.2-0.4,0.4v0
		c0,0.2,0.2,0.4,0.4,0.4h2.3v0.1h-2.9c-0.2,0-0.4,0.2-0.4,0.4v0c0,0.2,0.2,0.4,0.4,0.4h2.9v0.1h-2.5c-0.2,0-0.4,0.2-0.4,0.4v0
		c0,0.2,0.2,0.4,0.4,0.4h2.5v0.1h-1.9c-0.2,0-0.4,0.2-0.4,0.4v0c0,0.2,0.2,0.4,0.4,0.4h1.9h1.3h0.9c0.9,0,1.6-0.7,1.6-1.6v-0.5
		c0-0.5-0.2-0.9-0.6-1.2h0l-2.2-1.7C-48.9,81.5-49.1,81.5-49.2,81.6z"/>
</g>
</svg>
