<?xml version="1.0" encoding="utf-8"?>
<!-- Generator: Adobe Illustrator 18.0.0, SVG Export Plug-In . SVG Version: 6.00 Build 0)  -->
<!DOCTYPE svg PUBLIC "-//W3C//DTD SVG 1.1//EN" "http://www.w3.org/Graphics/SVG/1.1/DTD/svg11.dtd">
<svg version="1.1" id="Layer_1" xmlns="http://www.w3.org/2000/svg" xmlns:xlink="http://www.w3.org/1999/xlink" x="0px" y="0px"
	 viewBox="72 80 297.3 52.7" enable-background="new 72 80 297.3 52.7" xml:space="preserve">
<g>
	<path fill="#2E9ED0" d="M106.7,98.2L106.7,98.2c0.6,0.4,1.2,0.3,1.6-0.1l2.3-2v1.4v2.7v7.3c0,0.7,0.6,1.2,1.2,1.2h0.1
		c0.7,0,1.2-0.6,1.2-1.2v-7.3h0.4v9.4c0,0.7,0.6,1.2,1.2,1.2h0.1c0.7,0,1.2-0.6,1.2-1.2v-9.4h0.4v8c0,0.7,0.6,1.2,1.2,1.2h0.1
		c0.7,0,1.2-0.6,1.2-1.2v-8h0.4v6c0,0.7,0.6,1.2,1.2,1.2h0.1c0.7,0,1.2-0.6,1.2-1.2v-6v-4v-3c0-2.8-2.2-5-5-5h-1.6
		c-1.5,0-2.9,0.7-3.8,1.7l0-0.1l-5.3,6.9C106.1,97.2,106.2,97.9,106.7,98.2z"/>
	<path fill="#92C26D" d="M91.1,103.6L91.1,103.6c0.4-0.6,0.3-1.2-0.1-1.6l-2-2.3h1.4H93h7.3c0.7,0,1.2-0.6,1.2-1.2v-0.1
		c0-0.7-0.6-1.2-1.2-1.2H93v-0.4h9.4c0.7,0,1.2-0.6,1.2-1.2v-0.1c0-0.7-0.6-1.2-1.2-1.2H93v-0.4h8c0.7,0,1.2-0.6,1.2-1.2v-0.1
		c0-0.7-0.6-1.2-1.2-1.2h-8v-0.4h6c0.7,0,1.2-0.6,1.2-1.2v-0.1c0-0.7-0.6-1.2-1.2-1.2h-6h-4h-3c-2.8,0-5,2.2-5,5v1.6
		c0,1.5,0.7,2.9,1.7,3.8l-0.1,0l6.9,5.3C90,104.2,90.7,104.1,91.1,103.6z"/>
	<path fill="#EDA916" d="M96.5,119.2L96.5,119.2c-0.6-0.4-1.2-0.3-1.6,0.1l-2.3,2v-1.4v-2.7v-7.3c0-0.7-0.6-1.2-1.2-1.2h-0.1
		c-0.7,0-1.2,0.6-1.2,1.2v7.3h-0.4v-9.4c0-0.7-0.6-1.2-1.2-1.2h-0.1c-0.7,0-1.2,0.6-1.2,1.2v9.4h-0.4v-8c0-0.7-0.6-1.2-1.2-1.2h-0.1
		c-0.7,0-1.2,0.6-1.2,1.2v8h-0.4v-6c0-0.7-0.6-1.2-1.2-1.2h-0.1c-0.7,0-1.2,0.6-1.2,1.2v6v4v3c0,2.8,2.2,5,5,5h1.6
		c1.5,0,2.9-0.7,3.8-1.7l0,0.1l5.3-6.9C97,120.3,97,119.6,96.5,119.2z"/>
	<path fill="#E98177" d="M112.1,113.8L112.1,113.8c-0.4,0.6-0.3,1.2,0.1,1.6l2,2.3h-1.4h-2.7h-7.3c-0.7,0-1.2,0.6-1.2,1.2v0.1
		c0,0.7,0.6,1.2,1.2,1.2h7.3v0.4h-9.4c-0.7,0-1.2,0.6-1.2,1.2v0.1c0,0.7,0.6,1.2,1.2,1.2h9.4v0.4h-8c-0.7,0-1.2,0.6-1.2,1.2v0.1
		c0,0.7,0.6,1.2,1.2,1.2h8v0.4h-6c-0.7,0-1.2,0.6-1.2,1.2v0.1c0,0.7,0.6,1.2,1.2,1.2h6h4h3c2.8,0,5-2.2,5-5v-1.6
		c0-1.5-0.7-2.9-1.7-3.8l0.1,0l-6.9-5.3C113.1,113.3,112.5,113.4,112.1,113.8z"/>
</g>
<g>
	<path fill="#243B4E" d="M154.6,119.9h-6.2v-10h-7.7v10h-6.2V95.4h6.2v9.5h7.7v-9.5h6.2V119.9z"/>
	<path fill="#243B4E" d="M177.5,115.7c0,1.6,0.1,3.1,0.3,4.2h-5.6l-0.4-1.7h-0.1c-1.2,1.4-3.1,2.1-5.1,2.1c-3.6,0-6-2.5-6-5.5
		c0-4.7,4.7-6.8,10.5-6.8c0-1.4-0.7-2.3-3.2-2.3c-1.9,0-3.6,0.5-4.9,1.2l-1.1-3.6c1.3-0.6,3.8-1.5,7.3-1.5c6.6,0,8.2,3.7,8.2,7.7
		V115.7z M171.5,111.4c-2.6,0-4.8,0.7-4.8,2.7c0,1.5,1,2.1,2.1,2.1c1.3,0,2.7-0.8,2.7-2.5V111.4z"/>
	<path fill="#243B4E" d="M201,119.9h-6.2v-10.4c0-1.9-0.6-3.2-2.4-3.2c-1.3,0-2.7,0.9-2.7,3.1v10.5h-6.2v-12.1c0-2.1-0.1-4-0.1-5.7
		h5.3l0.3,2.3h0.1c0.9-1.2,2.7-2.6,5.5-2.6c4.2,0,6.4,2.7,6.4,7.3V119.9z"/>
	<path fill="#243B4E" d="M224.4,114.4c0,2,0.1,4,0.1,5.5h-5.4l-0.3-2.3h-0.1c-1.1,1.7-3.1,2.7-5.2,2.7c-4.5,0-7.5-3.9-7.5-9.2
		c0-6.1,3.7-9.4,7.8-9.4c2.1,0,3.6,0.8,4.3,1.8h0.1v-9.2h6.2V114.4z M218.2,109.3c0-2.5-1.6-3.2-2.7-3.2c-2.3,0-3.3,2.2-3.3,4.9
		c0,3.1,1.3,4.7,3.2,4.7c1.2,0,2.7-0.7,2.7-3.1V109.3z"/>
	<path fill="#243B4E" d="M257.1,119.4c-1,0.4-3.1,0.8-5.7,0.8c-8.6,0-12.7-5.4-12.7-12.2c0-8.8,6.3-12.9,13.4-12.9
		c2.7,0,4.6,0.5,5.4,0.9l-1.1,4.5c-0.9-0.4-2.2-0.7-3.9-0.7c-3.9,0-7.2,2.4-7.2,7.9c0,5.1,2.8,7.8,7.2,7.8c1.4,0,3-0.3,3.9-0.6
		L257.1,119.4z"/>
	<path fill="#243B4E" d="M275.3,107.1c-0.4-0.1-0.9-0.1-1.5-0.1c-1.6,0-3.1,0.7-3.6,2.3c-0.2,0.4-0.2,1-0.2,1.7v8.9h-6.2v-12.1
		c0-2.3-0.1-4.2-0.1-5.8h5.3l0.2,3h0.1c1-2.3,3.1-3.3,4.7-3.3c0.6,0,0.9,0,1.3,0.1V107.1z"/>
	<path fill="#243B4E" d="M297.6,110.8c0,6.9-5,9.4-9.3,9.4c-5.5,0-9.3-3.4-9.3-9.2c0-6,4-9.4,9.5-9.4
		C294.2,101.7,297.6,105.5,297.6,110.8z M288.4,105.7c-2.3,0-3.1,2.7-3.1,5.2c0,3,1,5.2,3.1,5.2c2,0,3-2.4,3-5.2
		C291.3,108.3,290.5,105.7,288.4,105.7z"/>
	<path fill="#243B4E" d="M328.8,102l-5.6,17.8h-5.6L316,114c-0.4-1.7-0.8-3.4-1.1-5.6h-0.1c-0.3,2.2-0.7,3.9-1.2,5.6l-1.7,5.8h-5.6
		L301,102h6.4l1.2,7.2c0.3,1.9,0.6,3.8,0.8,5.7h0.1c0.3-1.9,0.8-3.9,1.2-5.6l1.8-7.3h4.9l1.7,7.1c0.5,2,0.9,3.9,1.2,5.8h0.1
		c0.2-1.9,0.5-3.8,0.9-5.8l1.3-7.1H328.8z"/>
	<path fill="#243B4E" d="M350.5,114.4c0,2,0.1,4,0.1,5.5h-5.4l-0.3-2.3h-0.1c-1.1,1.7-3.1,2.7-5.2,2.7c-4.5,0-7.5-3.9-7.5-9.2
		c0-6.1,3.7-9.4,7.8-9.4c2.1,0,3.6,0.8,4.3,1.8h0.1v-9.2h6.2V114.4z M344.3,109.3c0-2.5-1.6-3.2-2.7-3.2c-2.3,0-3.3,2.2-3.3,4.9
		c0,3.1,1.3,4.7,3.2,4.7c1.2,0,2.7-0.7,2.7-3.1V109.3z"/>
</g>
</svg>
