<?xml version="1.0" encoding="utf-8"?>
<!-- Generator: Adobe Illustrator 18.0.0, SVG Export Plug-In . SVG Version: 6.00 Build 0)  -->
<!DOCTYPE svg PUBLIC "-//W3C//DTD SVG 1.1//EN" "http://www.w3.org/Graphics/SVG/1.1/DTD/svg11.dtd">
<svg version="1.1" xmlns="http://www.w3.org/2000/svg" xmlns:xlink="http://www.w3.org/1999/xlink" x="0px" y="0px"
	 viewBox="93 19.2 250 41.7" enable-background="new 93 19.2 250 41.7" xml:space="preserve">
<g id="Layer_1">
	<rect x="-187" y="-62" display="none" fill="#4E006A" stroke="#45FF00" stroke-miterlimit="10" width="617" height="188"/>
	<g>
		<path fill="#FFFFFF" d="M159.7,57h-4V42.2h-12.9V57h-4V25h4v13.8h12.9V25h4V57z"/>
		<path fill="#FFFFFF" d="M178.3,57c-0.1-0.3-0.2-0.7-0.3-1.1c-0.1-0.5-0.1-0.9-0.2-1.5c-0.3,0.4-0.6,0.8-1,1.2
			c-0.4,0.4-0.8,0.7-1.2,1c-0.4,0.3-0.9,0.5-1.5,0.7c-0.5,0.2-1.1,0.2-1.7,0.2c-1,0-2-0.1-2.8-0.4c-0.8-0.3-1.6-0.7-2.2-1.3
			c-0.6-0.6-1.1-1.3-1.4-2.2c-0.3-0.9-0.5-1.9-0.5-3s0.2-2.2,0.6-3.2c0.4-1,1-1.8,1.8-2.5s1.8-1.3,2.9-1.7s2.5-0.6,4.1-0.6h2.7v-2.5
			c0-1.4-0.3-2.4-0.9-3s-1.6-0.9-2.9-0.9c-0.6,0-1.2,0.1-1.7,0.3c-0.5,0.2-0.9,0.5-1.2,0.8s-0.6,0.7-0.8,1.2s-0.3,0.9-0.3,1.4h-3.9
			c0-0.8,0.2-1.7,0.6-2.5c0.4-0.8,0.9-1.6,1.6-2.3c0.7-0.7,1.5-1.2,2.5-1.6s2.1-0.6,3.3-0.6c1.1,0,2.1,0.1,3,0.4
			c0.9,0.3,1.7,0.7,2.4,1.3c0.7,0.6,1.2,1.3,1.5,2.3s0.5,2.1,0.5,3.4v11.7c0,0.4,0,0.8,0,1.3s0.1,0.9,0.1,1.3
			c0.1,0.4,0.1,0.8,0.2,1.2c0.1,0.4,0.2,0.7,0.3,1.1V57H178.3z M173.2,53.9c0.5,0,1.1-0.1,1.5-0.2c0.5-0.2,0.9-0.4,1.3-0.6
			c0.4-0.3,0.7-0.5,1-0.9c0.3-0.3,0.5-0.7,0.7-1v-5.7h-2c-0.9,0-1.8,0.1-2.5,0.3c-0.8,0.2-1.4,0.5-1.9,0.9c-0.5,0.4-0.9,0.9-1.2,1.4
			c-0.3,0.6-0.4,1.2-0.4,2c0,0.7,0.1,1.3,0.2,1.8c0.1,0.5,0.4,0.9,0.7,1.2c0.3,0.3,0.7,0.5,1.1,0.6C172,53.8,172.6,53.9,173.2,53.9z
			"/>
		<path fill="#FFFFFF" d="M191.3,33.2l0.1,2.6c0.7-1,1.6-1.7,2.5-2.2c1-0.5,2.1-0.8,3.2-0.8c1,0,1.8,0.2,2.6,0.5s1.5,0.8,2,1.5
			c0.6,0.7,1,1.6,1.3,2.7c0.3,1.1,0.5,2.4,0.5,4V57h-3.9V41.4c0-1.9-0.3-3.2-0.9-4c-0.6-0.8-1.6-1.2-2.8-1.2c-1,0-1.8,0.3-2.6,1
			c-0.8,0.6-1.4,1.5-1.9,2.5V57h-3.9V33.2H191.3z"/>
		<path fill="#FFFFFF" d="M208.6,44c0-1.9,0.2-3.6,0.6-5.1s0.9-2.6,1.6-3.5c0.7-0.9,1.5-1.6,2.5-2s2.1-0.7,3.3-0.7
			c1.2,0,2.2,0.2,3.1,0.7c0.9,0.5,1.6,1.2,2.2,2.1V23.3h3.9V57h-3.6l-0.2-2.5c-0.6,1-1.4,1.7-2.3,2.2c-0.9,0.5-2,0.8-3.2,0.8
			c-1.2,0-2.2-0.2-3.2-0.7c-1-0.5-1.8-1.2-2.5-2.1c-0.7-0.9-1.2-2.1-1.6-3.5c-0.4-1.4-0.6-3-0.6-4.9V44z M212.5,46.3
			c0,2.7,0.4,4.6,1.2,5.9c0.8,1.3,2.1,1.9,3.9,1.9c1.1,0,2-0.3,2.7-0.8c0.7-0.5,1.2-1.2,1.7-2.1v-12c-0.4-0.8-1-1.5-1.7-2.1
			c-0.7-0.5-1.6-0.8-2.6-0.8c-1.8,0-3.1,0.6-3.9,1.9s-1.2,3.2-1.2,5.9V46.3z"/>
		<path fill="#FFFFFF" d="M253.7,46.8c-0.1,1.7-0.4,3.1-0.8,4.4c-0.5,1.3-1.1,2.4-2,3.3c-0.9,0.9-1.9,1.6-3.2,2.1
			c-1.3,0.5-2.7,0.7-4.4,0.7c-1.6,0-3.1-0.3-4.3-0.9c-1.3-0.6-2.4-1.5-3.3-2.7s-1.6-2.6-2.1-4.2c-0.5-1.7-0.7-3.5-0.7-5.6v-5.9
			c0-2.1,0.2-3.9,0.7-5.6c0.5-1.7,1.2-3.1,2.1-4.3c0.9-1.2,2.1-2.1,3.4-2.7c1.3-0.6,2.9-1,4.6-1c1.6,0,2.9,0.2,4.1,0.7
			c1.2,0.5,2.2,1.2,3,2.1s1.5,2,2,3.4s0.7,2.9,0.8,4.6h-4.1c-0.1-1.3-0.3-2.3-0.5-3.3s-0.6-1.7-1.1-2.3c-0.5-0.6-1.1-1-1.8-1.3
			c-0.7-0.3-1.5-0.4-2.5-0.4c-1.2,0-2.2,0.2-3,0.7c-0.8,0.5-1.6,1.1-2.1,2s-1,1.9-1.2,3.1c-0.3,1.2-0.4,2.6-0.4,4.1v6
			c0,1.4,0.1,2.7,0.3,3.9c0.2,1.2,0.6,2.3,1.1,3.2c0.5,0.9,1.2,1.6,2,2.1c0.8,0.5,1.8,0.8,3,0.8c1.1,0,2-0.1,2.8-0.4
			c0.8-0.3,1.4-0.7,1.8-1.3c0.5-0.6,0.8-1.3,1.1-2.2c0.2-0.9,0.4-2,0.5-3.3H253.7z"/>
		<path fill="#FFFFFF" d="M268.4,36.9c-0.3-0.1-0.6-0.1-0.9-0.1c-0.3,0-0.6,0-0.9,0c-1.1,0-1.9,0.3-2.6,0.9
			c-0.7,0.6-1.2,1.4-1.6,2.4v17h-3.9V33.2h3.8l0.1,2.4c0.5-0.9,1.1-1.6,1.8-2.1c0.7-0.5,1.6-0.8,2.6-0.8c0.1,0,0.3,0,0.4,0
			c0.2,0,0.3,0,0.5,0.1c0.1,0,0.3,0.1,0.4,0.1c0.1,0,0.2,0.1,0.3,0.1L268.4,36.9z"/>
		<path fill="#FFFFFF" d="M271,44c0-1.9,0.2-3.5,0.7-4.9c0.5-1.4,1.1-2.6,2-3.5c0.8-0.9,1.8-1.6,2.9-2.1c1.1-0.5,2.3-0.7,3.6-0.7
			c1.3,0,2.5,0.2,3.6,0.7c1.1,0.5,2.1,1.2,2.9,2.1c0.8,0.9,1.5,2.1,2,3.5c0.5,1.4,0.7,3,0.7,4.9v2.2c0,1.8-0.2,3.5-0.7,4.9
			c-0.5,1.4-1.1,2.6-2,3.5c-0.8,0.9-1.8,1.6-2.9,2.1s-2.3,0.7-3.6,0.7s-2.5-0.2-3.6-0.7c-1.1-0.5-2.1-1.2-2.9-2.1
			c-0.8-0.9-1.5-2.1-2-3.5c-0.5-1.4-0.7-3-0.7-4.9V44z M274.9,46.3c0,1.3,0.1,2.5,0.4,3.4c0.3,1,0.6,1.8,1.1,2.5
			c0.5,0.7,1,1.1,1.7,1.5c0.6,0.3,1.3,0.5,2.1,0.5c3.5,0,5.3-2.6,5.3-7.9V44c0-1.3-0.1-2.4-0.4-3.4c-0.3-1-0.6-1.8-1.1-2.5
			c-0.5-0.7-1-1.2-1.7-1.5c-0.7-0.3-1.4-0.5-2.1-0.5c-0.7,0-1.4,0.2-2.1,0.5s-1.2,0.8-1.7,1.5s-0.8,1.5-1.1,2.5
			c-0.3,1-0.4,2.1-0.4,3.4V46.3z"/>
		<path fill="#FFFFFF" d="M312.1,50.2l3.6-16.9h3.8L313.8,57h-3.1L306,40l-4.5,17h-3.1l-5.8-23.8h3.8l3.7,16.5l4.4-16.5h3.1
			L312.1,50.2z"/>
		<path fill="#FFFFFF" d="M322.8,44c0-1.9,0.2-3.6,0.6-5.1s0.9-2.6,1.6-3.5c0.7-0.9,1.5-1.6,2.5-2s2.1-0.7,3.3-0.7
			c1.2,0,2.2,0.2,3.1,0.7c0.9,0.5,1.6,1.2,2.2,2.1V23.3h3.9V57h-3.6l-0.2-2.5c-0.6,1-1.4,1.7-2.3,2.2c-0.9,0.5-2,0.8-3.2,0.8
			c-1.2,0-2.2-0.2-3.2-0.7c-1-0.5-1.8-1.2-2.5-2.1c-0.7-0.9-1.2-2.1-1.6-3.5c-0.4-1.4-0.6-3-0.6-4.9V44z M326.7,46.3
			c0,2.7,0.4,4.6,1.2,5.9c0.8,1.3,2.1,1.9,3.9,1.9c1.1,0,2-0.3,2.7-0.8c0.7-0.5,1.2-1.2,1.7-2.1v-12c-0.4-0.8-1-1.5-1.7-2.1
			c-0.7-0.5-1.6-0.8-2.6-0.8c-1.8,0-3.1,0.6-3.9,1.9s-1.2,3.2-1.2,5.9V46.3z"/>
	</g>
</g>
<g id="Layer_2">
	<path fill="#EEAB17" d="M105.7,39.6c0-0.3-0.1-0.5-0.3-0.7c-0.2-0.2-0.4-0.3-0.7-0.3l0,0c-0.3,0-0.5,0.1-0.7,0.3
		c-0.2,0.2-0.3,0.4-0.3,0.7v9.6h-0.5V37.8c0-0.3-0.1-0.5-0.3-0.7c-0.2-0.2-0.4-0.3-0.7-0.3l0,0c-0.3,0-0.5,0.1-0.7,0.3
		c-0.2,0.2-0.3,0.5-0.3,0.7v11.3h-0.5v-9.6c0-0.3-0.1-0.5-0.3-0.7c-0.2-0.2-0.4-0.3-0.7-0.3l0,0c-0.3,0-0.5,0.1-0.7,0.3
		c-0.2,0.2-0.3,0.4-0.3,0.7v9.6h-0.5v-6.7c0-0.3-0.1-0.5-0.3-0.7c-0.2-0.2-0.4-0.3-0.7-0.3l0,0c-0.3,0-0.5,0.1-0.7,0.3
		c-0.2,0.2-0.3,0.5-0.3,0.7v9.8c0,1.6,0.4,3,1.4,4.1c1,1,2.2,1.5,3.2,1.5s2.9-0.2,3.7-0.8c1.5-1.1,2.5-2.5,2.7-2.8s1.9-2.7,2.2-3.3
		c0.3-0.5,0.4-1.2,0.1-1.5c-0.4-0.3-0.9-0.4-1.5,0.1c-0.5,0.4-0.6,0.6-0.9,0.9c-0.3,0.3-1.6,2-1.6-0.3"/>
	<path fill="#EA8278" d="M112.9,48.5c-0.3,0-0.5,0.1-0.7,0.3c-0.2,0.2-0.3,0.4-0.3,0.7l0,0c0,0.3,0.1,0.5,0.3,0.7
		c0.2,0.2,0.4,0.3,0.7,0.3h9.6V51h-11.3c-0.3,0-0.5,0.1-0.7,0.3c-0.2,0.2-0.3,0.4-0.3,0.7l0,0c0,0.3,0.1,0.5,0.3,0.7
		c0.2,0.2,0.5,0.3,0.7,0.3h11.3v0.5h-9.6c-0.3,0-0.5,0.1-0.7,0.3c-0.2,0.2-0.3,0.4-0.3,0.7l0,0c0,0.3,0.1,0.5,0.3,0.7
		c0.2,0.2,0.4,0.3,0.7,0.3h9.6V56h-6.7c-0.3,0-0.5,0.1-0.7,0.3c-0.2,0.2-0.3,0.4-0.3,0.7l0,0c0,0.3,0.1,0.5,0.3,0.7
		c0.2,0.2,0.5,0.3,0.7,0.3h9.8c1.6,0,3-0.4,4.1-1.4c1-1,1.5-2.2,1.5-3.2c0.1-1.1-0.2-2.9-0.8-3.7c-1.1-1.5-2.5-2.5-2.8-2.7
		c-0.3-0.2-2.7-1.9-3.3-2.2c-0.6-0.3-1.2-0.4-1.5-0.1c-0.3,0.4-0.4,0.9,0.1,1.5c0.4,0.5,0.6,0.6,0.9,0.9c0.3,0.3,2,1.6-0.3,1.6"/>
	<path fill="#309FD1" d="M121.9,41.6c0,0.3,0.1,0.5,0.3,0.7c0.2,0.2,0.4,0.3,0.7,0.3l0,0c0.3,0,0.5-0.1,0.7-0.3
		c0.2-0.2,0.3-0.4,0.3-0.7V32h0.5v11.3c0,0.3,0.1,0.5,0.3,0.7c0.2,0.2,0.4,0.3,0.7,0.3l0,0c0.3,0,0.5-0.1,0.7-0.3
		c0.2-0.2,0.3-0.5,0.3-0.7V32h0.5v9.6c0,0.3,0.1,0.5,0.3,0.7c0.2,0.2,0.4,0.3,0.7,0.3l0,0c0.3,0,0.5-0.1,0.7-0.3
		c0.2-0.2,0.3-0.4,0.3-0.7V32h0.5v6.7c0,0.3,0.1,0.5,0.3,0.7c0.2,0.2,0.4,0.3,0.7,0.3l0,0c0.3,0,0.5-0.1,0.7-0.3
		c0.2-0.2,0.3-0.5,0.3-0.7V29c0-1.6-0.4-3-1.4-4.1c-1-1-2.2-1.5-3.2-1.5s-2.9,0.2-3.7,0.8c-1.5,1.1-2.5,2.5-2.7,2.8
		c-0.2,0.3-1.9,2.7-2.2,3.3c-0.3,0.6-0.4,1.2-0.1,1.5c0.4,0.3,0.9,0.4,1.5-0.1c0.5-0.4,0.6-0.6,0.9-0.9c0.3-0.3,1.6-2,1.6,0.3"/>
	<path fill="#94C36D" d="M115.3,32.5c0.3,0,0.5-0.1,0.7-0.3c0.2-0.2,0.3-0.4,0.3-0.7l0,0c0-0.3-0.1-0.5-0.3-0.7
		c-0.2-0.2-0.4-0.3-0.7-0.3h-9.5V30h11.3c0.3,0,0.5-0.1,0.7-0.3c0.2-0.2,0.3-0.4,0.3-0.7l0,0c0-0.3-0.1-0.5-0.3-0.7
		c-0.2-0.2-0.5-0.3-0.7-0.3h-11.3v-0.5h9.5c0.3,0,0.5-0.1,0.7-0.3c0.2-0.2,0.3-0.4,0.3-0.7l0,0c0-0.3-0.1-0.5-0.3-0.7
		c-0.2-0.2-0.4-0.3-0.7-0.3h-9.5V25h6.7c0.3,0,0.5-0.1,0.7-0.3c0.2-0.2,0.3-0.4,0.3-0.7l0,0c0-0.3-0.1-0.5-0.3-0.7
		c-0.2-0.2-0.5-0.3-0.7-0.3h-9.8c-1.6,0-3,0.4-4.1,1.4c-1,1-1.5,2.2-1.5,3.2c-0.1,1.1,0.2,2.9,0.8,3.7c1.1,1.5,2.5,2.5,2.8,2.7
		c0.3,0.2,2.7,1.9,3.3,2.2c0.5,0.3,1.2,0.4,1.5,0.1c0.3-0.4,0.4-0.9-0.1-1.5c-0.4-0.5-0.6-0.6-0.9-0.9c-0.3-0.3-2-1.6,0.3-1.6"/>
</g>
</svg>
